nColumns=28
nRows=15
DataType=double
version=3
OpenSimVersion=4.1
endheader
time	1_ground_force_vx	1_ground_force_vy	1_ground_force_vz	1_ground_force_px	1_ground_force_py	1_ground_force_pz	1_ground_torque_x	1_ground_torque_y	1_ground_torque_z	2_ground_force_vx	2_ground_force_vy	2_ground_force_vz	2_ground_force_px	2_ground_force_py	2_ground_force_pz	2_ground_torque_x	2_ground_torque_y	2_ground_torque_z	3_ground_force_vx	3_ground_force_vy	3_ground_force_vz	3_ground_force_px	3_ground_force_py	3_ground_force_pz	3_ground_torque_x	3_ground_torque_y	3_ground_torque_z
0.8125000000000001	-0.002259870880667936	0.002521998147630164	0.001277684410634449	0.3000119505105275	-0.005999999999991748	0.1999834561861193	-0.0001322013269301025	0.000160376860751328	7.934305867091381e-05	-5.75422998949552e-22	-6.506927016966079e-21	3.038392546007414e-21	-0.2999999989467469	-0.005999999999991748	0.2000000015792148	1.256008849062604e-22	3.916403017930567e-22	-1.685453150466894e-22	-27.85200819228659	706.0490350747841	-48.73103826359488	0.8410572078071405	-0.005999999999991747	0.2122239810927662	0.1047612352377446	-2.663267116852323	0.1837569523186929
0.8133333333333335	-0.002592571840076083	0.00268467686722209	0.00146175543083031	0.3000128023106662	-0.005999999999992064	0.1999806152391762	-0.000154127389237287	0.000170218220133718	9.281864867588065e-05	-1.100363951425937e-22	-7.404271955523475e-21	3.899976273432035e-21	-0.2999999989467562	-0.005999999999992064	0.200000001579219	1.115312150697853e-22	4.292304386774727e-22	-2.091162448326517e-22	-27.41585675014649	705.0737093820338	-48.64982554366355	0.841262790644781	-0.005999999999992063	0.2122248257942312	0.103592316252143	-2.67198405912113	0.1843004164690116
0.8141666666666668	-0.002827457961739474	0.002766607838215408	0.001591073222577403	0.3000132604619258	-0.005999999999992345	0.19997854556837	-0.0001699958500889271	0.0001749933274091697	0.000102615595245513	3.05333301414456e-22	-8.028226723783105e-21	4.573623243297081e-21	-0.2999999989467632	-0.005999999999992345	0.2000000015792231	9.645980383138138e-23	4.526020311363679e-22	-2.402457036367538e-22	-26.98774892297256	704.1174750793685	-48.57279131044193	0.8414722797916985	-0.005999999999992344	0.2122262397799575	0.1024464385377541	-2.680734127544554	0.184856665346194
0.8150000000000002	-0.002970121848091849	0.002775009145412748	0.001668818531873776	0.3000133587883837	-0.005999999999992582	0.1999772081311899	-0.0001801223382932611	0.0001751635455583254	0.0001089218440981728	6.666862710775582e-22	-8.395179355326342e-21	5.064913599027128e-21	-0.2999999989467677	-0.005999999999992582	0.200000001579227	8.084996158814709e-23	4.628183247838988e-22	-2.622770507271337e-22	-26.5674227832377	703.1801479679361	-48.5000013142136	0.8416857021050678	-0.005999999999992582	0.2122282048434903	0.1013218669154085	-2.689466368242819	0.1854226730724964
0.8158333333333335	-0.003027666916348579	0.002717991795468816	0.001699010973488096	0.3000131356529548	-0.005999999999992772	0.1999765512836	-0.0001849202300146936	0.0001712451049937265	0.000111985208861087	9.717294858466638e-22	-8.525637380827968e-21	5.383033713402258e-21	-0.2999999989467695	-0.005999999999992772	0.2000000015792308	6.512516905379079e-23	4.611280841458773e-22	-2.757262290546957e-22	-26.15465861807872	702.2615741523209	-48.43148607595528	0.8419030550034582	-0.00599999999999277	0.2122306995982952	0.1002169050038753	-2.698128729037375	0.1859951970016805
0.8166666666666669	-0.003008371690430865	0.002604270399912719	0.001686320876502863	0.3000126325533558	-0.005999999999992904	0.1999765134034745	-0.0001848800024249984	0.0001637909115736964	0.0001121008503736675	1.219737171023861e-21	-8.443286019464789e-21	5.540155381169981e-21	-0.2999999989467687	-0.005999999999992904	0.2000000015792343	4.966373817959788e-23	4.489156232135041e-22	-2.812502823436434e-22	-25.74928739209064	701.3616373624537	-48.36723853156566	0.8421243087158536	-0.005999999999992903	0.2122337011282009	0.09912995310753465	-2.70666966915672	0.1865708746986572
0.8175000000000001	-0.002921364716830314	0.002442892519124609	0.001635887267892581	0.3000118928038527	-0.005999999999992981	0.1999770254494813	-0.000180549128503724	0.0001533735577043238	0.0001095990704538562	1.411390618875218e-21	-8.174078937943531e-21	5.550815783567106e-21	-0.299999998946765	-0.005999999999992981	0.2000000015792376	3.479512559875614e-23	4.276533317415751e-22	-2.796161505870719e-22	-25.35119659777806	700.4802643641166	-48.30721307955465	0.8423494084351557	-0.00599999999999298	0.2122371867824551	0.09805955835662136	-2.71503985599982	0.1871463326127001
0.8183333333333335	-0.002776316456713987	0.002242990847111647	0.001553145529389255	0.3000109603237292	-0.005999999999993001	0.1999780134032548	-0.000172512918945966	0.0001405697953091718	0.0001048336681819467	1.548603408368838e-21	-7.74537902202951e-21	5.431312542530137e-21	-0.2999999989467589	-0.005999999999993001	0.2000000015792407	2.079779756136531e-23	3.988575182875304e-22	-2.716704374559209e-22	-24.96033333935679	699.6174291538247	-48.25132602714685	0.8425782762124399	-0.005999999999993	0.2122411360935898	0.09700445654037576	-2.723193928210856	0.1877183048900342
0.8191666666666668	-0.002583153394572242	0.002013561414102201	0.001443667638788646	0.3000098785485638	-0.005999999999992965	0.1999794005513086	-0.0001613766492723008	0.0001259466662503039	9.817106566581664e-05	1.63433774020469e-21	-7.185163472845867e-21	5.199126214365011e-21	-0.2999999989467506	-0.005999999999992965	0.2000000015792434	7.898520695795629e-24	3.64048221186009e-22	-2.583107422060518e-22	-24.57670470000887	698.7731567294845	-48.19945730380984	0.8428108124454187	-0.005999999999992964	0.2122455327093032	0.09596360526522124	-2.731092285877543	0.1882837590199961
0.8200000000000002	-0.002351798495588097	0.001763270020627395	0.001313017285621322	0.3000086894757381	-0.005999999999992879	0.1999811095717754	-0.0001477492421838716	0.0001100494251833783	8.998036899459462e-05	1.672417157812849e-21	-6.52130442897324e-21	4.872380540042938e-21	-0.2999999989467405	-0.005999999999992879	0.2000000015792457	-3.727065997538282e-24	3.247134729049802e-22	-2.404590453784747e-22	-24.20037557799451	697.9475271176626	-48.15145317895613	0.843046896843853	-0.005999999999992878	0.2122503661325195	0.09493620821339883	-2.738702856489913	0.1888400237179346
0.8208333333333335	-0.002091941064964107	0.001500288210806862	0.001166621546861123	0.300007432851186	-0.005999999999992753	0.1999830643995453	-0.0001322287085676659	9.339133293863307e-05	8.062448964176815e-05	1.667340413547295e-21	-5.780933295379271e-21	4.469348726608654e-21	-0.2999999989467289	-0.005999999999992753	0.2000000015792474	-1.39527559458204e-23	2.82278344926907e-22	-2.19037534598795e-22	-23.83146426425605	697.1406799848913	-48.10712958490051	0.8432863888079216	-0.005999999999992752	0.2122556330158886	0.09392173103532504	-2.746002794281708	0.1893849146528007
0.8216666666666669	-0.001812838034450779	0.001232159258564257	0.001009660233190343	0.3000061455003225	-0.005999999999992597	0.1999851918515017	-0.0001153894867213737	7.644534624118716e-05	7.045241279167303e-05	1.624100675061019e-21	-4.98989409130142e-21	4.008012030025306e-21	-0.299999998946716	-0.005999999999992597	0.2000000015792484	-2.269912286592688e-23	2.380789522784028e-22	-1.94947156452489e-22	-23.47013609257705	696.3528196290563	-48.06627553743034	0.8435291272209514	-0.005999999999992596	0.2122613377754732	0.0929199104074596	-2.752980088206555	0.1899168545568602
0.8225000000000001	-0.001523147742406285	0.0009656938897141161	0.0008469734803608483	0.3000048608024082	-0.005999999999992419	0.1999874230012009	-9.777175950032932e-05	5.963768261168799e-05	5.97926626488879e-05	1.548013668887432e-21	-4.172288460978426e-21	3.505674986346968e-21	-0.2999999989467022	-0.005999999999992419	0.2000000015792485	-2.993008140714871e-23	1.933414613717297e-22	-1.690490847731163e-22	-23.11659552427814	695.5842196506303	-48.02865614526219	0.8437749297225426	-0.005999999999992419	0.2122674923488319	0.09193075805429679	-2.759635053720661	0.1904349843452341
0.8233333333333335	-0.001230796398355022	0.0007068948033278848	0.0006829876714102168	0.3000036083043577	-0.005999999999992231	0.1999896942993614	-7.987277413345727e-05	4.334319811384127e-05	4.894798132626102e-05	1.444557744274244e-21	-3.350112562894991e-21	2.978639830971853e-21	-0.2999999989466873	-0.005999999999992231	0.2000000015792476	-3.564882940924832e-23	1.491660236494908e-22	-1.42149206423187e-22	-22.77107703231599	694.8352263464207	-47.99401488562377	0.8440235915939287	-0.00599999999999223	0.2122741149964918	0.09095456060984944	-2.765981654057497	0.1909392605757308
0.8241666666666668	-0.0009428766421006766	0.0004609084925176289	0.0005216593399353921	0.3000024134672111	-0.005999999999992041	0.1999919484428468	-6.214014013277875e-05	2.788248054035803e-05	3.819120783823517e-05	1.319228226392834e-21	-2.54298389427301e-21	2.441940983733418e-21	-0.2999999989466719	-0.005999999999992041	0.2000000015792457	-3.989333590443147e-23	1.06515451841024e-22	-1.149856441247989e-22	-22.43383514145417	694.1062598865926	-47.96207516653963	0.8442748844639395	-0.00599999999999204	0.2122812281259359	0.08999187464909153	-2.772048552758407	0.1914305328162094
